<svg width="25" height="28" viewBox="0 0 25 28" fill="none" xmlns="http://www.w3.org/2000/svg">
<g clip-path="url(#clip0_1111_716)">
<path d="M10.1352 13.0455C9.24078 13.0455 8.51318 14.0576 8.51318 15.3017C8.59409 18.2903 11.6765 18.2897 11.7572 15.3016C11.7572 14.0576 11.0295 13.0455 10.1352 13.0455Z" fill="#333333"/>
<path d="M24.1647 16.2827C23.7537 15.621 23.2193 15.0811 22.5988 14.6956C23.0718 11.2484 20.1975 8.17347 17.1459 8.85044C17.13 2.28886 8.8519 1.55466 7.87861 7.9737C3.83546 7.13542 0.608736 11.9859 2.48272 16.0803C-1.48426 17.8346 -0.456158 24.3901 3.85574 24.4742H20.3394C24.0573 24.5098 26.3139 19.6752 24.1647 16.2827ZM10.1353 19.1994C8.43272 19.1994 7.04763 17.4509 7.04763 15.3017C7.20798 10.1356 13.0631 10.1368 13.2229 15.3018C13.2229 17.4509 11.8378 19.1994 10.1353 19.1994ZM17.1997 19.6973C18.171 19.7377 18.1703 21.2989 17.1997 21.3389H14.8249C14.4201 21.3389 14.092 20.9714 14.092 20.5181C14.092 19.4085 14.9348 18.7926 15.612 18.2977C15.9524 18.0489 16.4669 17.6729 16.4669 17.4526C16.4473 16.7977 15.6488 16.8218 15.5203 17.2599C15.1938 18.2854 13.865 17.8147 14.1229 16.7662C14.2583 16.2596 14.8275 15.3018 16.0121 15.3018C17.071 15.3018 17.9325 16.2666 17.9325 17.4527C17.9325 18.5619 17.0899 19.1777 16.4129 19.6725C16.4018 19.6806 16.3904 19.689 16.3788 19.6974H17.1997V19.6973Z" fill="#333333"/>
</g>
<defs>
<clipPath id="clip0_1111_716">
<rect width="25" height="28" fill="white"/>
</clipPath>
</defs>
</svg>
