<svg width="32" height="32" viewBox="0 0 32 32" fill="none" xmlns="http://www.w3.org/2000/svg">
<g clip-path="url(#clip0_1111_79)">
<path d="M15.5279 7.08187C15.1172 6.58762 14.3589 6.58762 13.9481 7.08187C11.6664 9.82706 5.22754 17.9624 5.22754 22.3484C5.22754 27.6789 9.48554 32.0001 14.738 32.0001C19.9904 32.0001 24.2484 27.6789 24.2484 22.3484C24.2484 17.9624 17.8096 9.82706 15.5279 7.08187ZM16.8934 21.5432H15.6755V22.7611C15.6755 23.2788 15.2558 23.6986 14.738 23.6986C14.2203 23.6986 13.8005 23.2788 13.8005 22.7611V21.5432H12.5827C12.0649 21.5432 11.6452 21.1234 11.6452 20.6057C11.6452 20.0879 12.0649 19.6682 12.5827 19.6682H13.8005V18.4503C13.8005 17.9326 14.2203 17.5128 14.738 17.5128C15.2558 17.5128 15.6755 17.9326 15.6755 18.4503V19.6682H16.8934C17.4112 19.6682 17.8309 20.0879 17.8309 20.6057C17.8309 21.1234 17.4112 21.5432 16.8934 21.5432Z" fill="white"/>
<path d="M26.7724 5.6818C26.7724 7.74017 25.1037 9.4088 23.0454 9.4088C20.987 9.4088 19.3184 7.74017 19.3184 5.6818C19.3184 4.23942 21.1484 1.74705 22.2437 0.384422C22.6557 -0.128141 23.4349 -0.128141 23.8469 0.384422C24.9423 1.74705 26.7724 4.23948 26.7724 5.6818Z" fill="white"/>
</g>
<defs>
<clipPath id="clip0_1111_79">
<rect width="32" height="32" fill="white"/>
</clipPath>
</defs>
</svg>
