<svg width="36" height="34" viewBox="0 0 36 34" fill="none" xmlns="http://www.w3.org/2000/svg">
<g clip-path="url(#clip0_1111_380)">
<path d="M17.225 7.31657C16.7693 6.80594 15.9282 6.80594 15.4725 7.31657C12.9414 10.1528 5.79883 18.5577 5.79883 23.0891C5.79883 28.5963 10.5222 33.0608 16.3487 33.0608C22.1752 33.0608 26.8986 28.5963 26.8986 23.0891C26.8986 18.5577 19.7561 10.1528 17.225 7.31657ZM18.7397 22.2573H17.3888V23.5155C17.3888 24.0504 16.9231 24.4841 16.3488 24.4841C15.7744 24.4841 15.3088 24.0504 15.3088 23.5155V22.2573H13.9578C13.3835 22.2573 12.9179 21.8236 12.9179 21.2887C12.9179 20.7538 13.3835 20.3201 13.9578 20.3201H15.3088V19.0619C15.3088 18.5269 15.7744 18.0933 16.3488 18.0933C16.9231 18.0933 17.3888 18.5269 17.3888 19.0619V20.3201H18.7397C19.3141 20.3201 19.7797 20.7538 19.7797 21.2887C19.7797 21.8236 19.3141 22.2573 18.7397 22.2573Z" fill="#333333"/>
<path d="M29.6984 5.87014C29.6984 7.99675 27.8474 9.72069 25.564 9.72069C23.2807 9.72069 21.4297 7.99675 21.4297 5.87014C21.4297 4.37995 23.4598 1.80496 24.6748 0.397165C25.1318 -0.132388 25.9962 -0.132388 26.4532 0.397165C27.6683 1.80496 29.6984 4.38002 29.6984 5.87014Z" fill="#333333"/>
</g>
<defs>
<clipPath id="clip0_1111_380">
<rect width="35.4975" height="33.0608" fill="white"/>
</clipPath>
</defs>
</svg>
