<svg width="32" height="32" viewBox="0 0 32 32" fill="none" xmlns="http://www.w3.org/2000/svg">
<g clip-path="url(#clip0_1111_87)">
<path d="M17.3333 22.6667C16.8893 22.6667 16.472 22.4454 16.224 22.0734L13.9533 18.6667H12C11.264 18.6667 10.6666 18.0694 10.6666 17.3334C10.6666 16.5974 11.264 16 12 16H14.6666C15.112 16 15.528 16.2227 15.776 16.5934L17.168 18.6814L20.14 12.736C20.3586 12.3014 20.7946 12.0187 21.2813 12C21.7946 11.9867 22.2253 12.2294 22.476 12.6454L26.088 18.6667H28C28.736 18.6667 29.3333 19.264 29.3333 20C29.3333 20.736 28.736 21.3334 28 21.3334H25.3333C24.8653 21.3334 24.4306 21.088 24.1906 20.6867L21.44 16.1027L18.5266 21.9307C18.3133 22.356 17.8906 22.636 17.416 22.6654C17.3893 22.6667 17.3613 22.6667 17.3333 22.6667Z" fill="white"/>
<path d="M25.3333 24.0001C23.9333 24.0001 22.6266 23.2534 21.9066 22.0534L21.6533 21.6401L20.9066 23.1201C20.28 24.4001 19 25.2401 17.5866 25.3201L17.3333 25.3334C15.9866 25.3334 14.7466 24.6668 14 23.5468L12.52 21.3334H12C9.79996 21.3334 7.99996 19.5334 7.99996 17.3334C7.99996 15.1334 9.79996 13.3334 12 13.3334H14.6666C15.36 13.3334 16.0266 13.5068 16.6133 13.8401L17.76 11.5468C18.4133 10.2401 19.72 9.38676 21.1866 9.33343C21.76 9.32009 22.32 9.41343 22.8266 9.62676C19.6666 4.65343 15.6533 0.573428 15.3733 0.293428C15 -0.0799056 14.3333 -0.0799056 13.96 0.293428C13.4933 0.760094 2.66663 11.7734 2.66663 19.9068C2.66663 26.5734 8.05329 32.0001 14.6666 32.0001C19.8533 32.0001 24.2933 28.6534 25.96 24.0001H25.3333Z" fill="white"/>
</g>
<defs>
<clipPath id="clip0_1111_87">
<rect width="32" height="32" fill="white"/>
</clipPath>
</defs>
</svg>
