<svg width="29" height="25" viewBox="0 0 29 25" fill="none" xmlns="http://www.w3.org/2000/svg">
<g clip-path="url(#clip0_1111_389)">
<path d="M15.5899 17.2193C15.1906 17.2193 14.8152 17.0511 14.5922 16.7685L12.5499 14.1806H10.793C10.131 14.1806 9.59375 13.7268 9.59375 13.1677C9.59375 12.6086 10.131 12.1548 10.793 12.1548H13.1915C13.592 12.1548 13.9662 12.3239 14.1892 12.6055L15.4412 14.1917L18.1143 9.67524C18.311 9.34503 18.7032 9.1303 19.1409 9.11612C19.6026 9.10599 19.99 9.29034 20.2154 9.60636L23.4641 14.1806H25.1839C25.8458 14.1806 26.3831 14.6344 26.3831 15.1935C26.3831 15.7526 25.8458 16.2064 25.1839 16.2064H22.7854C22.3644 16.2064 21.9735 16.02 21.7576 15.7151L19.2836 12.2328L16.6633 16.6601C16.4714 16.9832 16.0912 17.196 15.6643 17.2182C15.6403 17.2193 15.6151 17.2193 15.5899 17.2193Z" fill="#333333"/>
<path d="M23.6165 18.6504C22.3573 18.6504 21.1821 18.0832 20.5345 17.1716L20.3066 16.8576L19.6351 17.9819C19.0714 18.9542 17.9202 19.5924 16.649 19.6531L16.4211 19.6633C15.2099 19.6633 14.0946 19.1568 13.423 18.306L12.0919 16.6246H11.6242C9.64542 16.6246 8.02645 15.2572 8.02645 13.5859C8.02645 11.9147 9.64542 10.5473 11.6242 10.5473H14.0226C14.6462 10.5473 15.2459 10.6789 15.7735 10.9321L16.8049 9.18998C17.3925 8.19734 18.5678 7.54909 19.8869 7.50858C20.4026 7.49845 20.9063 7.56935 21.362 7.73141C18.5198 3.95333 14.9101 0.853881 14.6582 0.641174C14.3224 0.357564 13.7228 0.357564 13.387 0.641174C12.9673 0.995686 3.22949 9.36217 3.22949 15.5408C3.22949 20.6053 8.07442 24.7277 14.0226 24.7277C18.6877 24.7277 22.6811 22.1854 24.1802 18.6504H23.6165Z" fill="#333333"/>
</g>
<defs>
<clipPath id="clip0_1111_389">
<rect width="28.7817" height="24.3094" fill="white"/>
</clipPath>
</defs>
</svg>
