<svg width="105" height="107" viewBox="0 0 105 107" fill="none" xmlns="http://www.w3.org/2000/svg">
<g clip-path="url(#clip0_1111_44)">
<path d="M52.7051 0C23.851 0 0 23.8869 0 53.291C0 82.6951 23.851 107 52.7051 107C81.5592 107 105 82.6951 105 53.291C105 23.8869 81.5592 0 52.7051 0Z" fill="#FEDB41"/>
<path d="M105 53.291C105 82.6951 81.5592 107 52.7051 107V0C81.5592 0 105 23.8869 105 53.291Z" fill="#FFCC33"/>
<path d="M52.7051 12.5391C30.6793 12.5391 12.3047 30.8459 12.3047 53.291C12.3047 75.7361 30.6793 94.4609 52.7051 94.4609C74.7309 94.4609 92.6953 75.7361 92.6953 53.291C92.6953 30.8459 74.7309 12.5391 52.7051 12.5391Z" fill="#FEA832"/>
<path d="M92.6953 53.291C92.6953 75.7361 74.7309 94.4609 52.7051 94.4609V12.5391C74.7309 12.5391 92.6953 30.8459 92.6953 53.291Z" fill="#FE9923"/>
<path d="M58.8574 50.1562H55.7812V37.6172H58.8574C60.5803 37.6172 61.9336 38.9963 61.9336 40.752C61.9336 44.8896 68.0859 44.8896 68.0859 40.752C68.0859 35.548 63.9643 31.3477 58.8574 31.3477H55.7812V28.2129C55.7812 26.1437 54.2432 25.0781 52.7051 25.0781C51.167 25.0781 49.6289 26.1437 49.6289 28.2129V31.3477H46.1426C41.0357 31.3477 36.9141 35.548 36.9141 40.752V47.0215C36.9141 52.2254 41.0357 56.4258 46.1426 56.4258H49.6289V69.3828H46.1426C44.4197 69.3828 43.0664 68.0037 43.0664 66.248C43.0664 62.1104 36.9141 62.1104 36.9141 66.248C36.9141 71.452 41.0357 75.6523 46.1426 75.6523H49.6289V78.7871C49.6289 80.8563 51.167 81.9219 52.7051 81.9219C54.2432 81.9219 55.7812 80.8563 55.7812 78.7871V75.6523H58.8574C63.9643 75.6523 68.0859 71.452 68.0859 66.248V59.5605C68.0859 54.3566 63.9643 50.1562 58.8574 50.1562ZM49.6289 50.1562H46.1426C44.4197 50.1562 43.0664 48.7772 43.0664 47.0215V40.752C43.0664 38.9963 44.4197 37.6172 46.1426 37.6172H49.6289V50.1562ZM61.9336 66.248C61.9336 68.0037 60.5803 69.3828 58.8574 69.3828H55.7812V56.4258H58.8574C60.5803 56.4258 61.9336 57.8049 61.9336 59.5605V66.248Z" fill="#FEDB41"/>
<path d="M58.8574 50.1562H55.7812V37.6172H58.8574C60.5803 37.6172 61.9336 38.9963 61.9336 40.752C61.9336 44.8896 68.0859 44.8896 68.0859 40.752C68.0859 35.548 63.9643 31.3477 58.8574 31.3477H55.7812V28.2129C55.7812 26.1437 54.2432 25.0781 52.7051 25.0781V81.9219C54.2432 81.9219 55.7812 80.8563 55.7812 78.7871V75.6523H58.8574C63.9643 75.6523 68.0859 71.452 68.0859 66.248V59.5605C68.0859 54.3566 63.9643 50.1562 58.8574 50.1562ZM61.9336 66.248C61.9336 68.0037 60.5803 69.3828 58.8574 69.3828H55.7812V56.4258H58.8574C60.5803 56.4258 61.9336 57.8049 61.9336 59.5605V66.248Z" fill="#FFCC33"/>
</g>
<defs>
<clipPath id="clip0_1111_44">
<rect width="105" height="107" fill="white"/>
</clipPath>
</defs>
</svg>
