<svg width="32" height="32" viewBox="0 0 32 32" fill="none" xmlns="http://www.w3.org/2000/svg">
<path d="M15.807 7.2502C17.0077 6.04952 17.0077 4.10283 15.807 2.90215C14.6063 1.70147 12.6596 1.70147 11.4589 2.90215C10.2583 4.10283 10.2583 6.04952 11.4589 7.2502C12.6596 8.45088 14.6063 8.45088 15.807 7.2502Z" fill="white"/>
<path d="M26.91 2H18.2C17.92 2 17.7 2.22501 17.7 2.5C17.7 2.77499 17.92 3 18.2 3H21.265V5.315H22.965C23.24 5.315 23.465 5.535 23.465 5.815C23.465 6.08999 23.24 6.315 22.965 6.315H21.265V8.22501H24.34C24.615 8.22501 24.84 8.44998 24.84 8.72501C24.84 9 24.615 9.22501 24.34 9.22501H21.265V11.135H22.965C23.24 11.135 23.465 11.36 23.465 11.635C23.465 11.91 23.24 12.135 22.965 12.135H21.265V14.045H24.34C24.615 14.045 24.84 14.27 24.84 14.545C24.84 14.82 24.615 15.045 24.34 15.045H21.265V16.955H22.965C23.24 16.955 23.465 17.18 23.465 17.455C23.465 17.73 23.24 17.955 22.965 17.955H21.265V19.865H24.34C24.615 19.865 24.84 20.09 24.84 20.365C24.84 20.64 24.615 20.865 24.34 20.865H21.265V22.775H22.965C23.24 22.775 23.465 23 23.465 23.275C23.465 23.55 23.24 23.775 22.965 23.775H21.265V25.685H24.34C24.615 25.685 24.84 25.91 24.84 26.185C24.84 26.465 24.615 26.685 24.34 26.685H21.265V29H16.775C16.93 28.72 17.02 28.4 17.02 28.06V19.915C17.25 20.025 17.51 20.09 17.78 20.09C18.75 20.09 19.535 19.3 19.535 18.33V12.455C19.535 10.705 18.115 9.28501 16.365 9.28501H10.91C9.15998 9.28501 7.73496 10.705 7.73496 12.455V18.33C7.73496 19.3 8.52497 20.09 9.49497 20.09C9.76499 20.09 10.025 20.03 10.25 19.915V28.06C10.25 28.4 10.34 28.72 10.495 29H5.08997C4.80997 29 4.58997 29.225 4.58997 29.5C4.58997 29.775 4.80997 30 5.08997 30H26.91C27.19 30 27.41 29.775 27.41 29.5V2.5C27.41 2.22501 27.19 2 26.91 2Z" fill="white"/>
</svg>
