<svg width="32" height="32" viewBox="0 0 32 32" fill="none" xmlns="http://www.w3.org/2000/svg">
<path d="M15.807 7.2502C17.0077 6.04952 17.0077 4.10283 15.807 2.90215C14.6063 1.70147 12.6596 1.70147 11.4589 2.90215C10.2583 4.10283 10.2583 6.04952 11.4589 7.2502C12.6596 8.45088 14.6063 8.45088 15.807 7.2502Z" fill="#333333"/>
<path d="M26.9101 2H18.2001C17.9201 2 17.7001 2.225 17.7001 2.5C17.7001 2.77499 17.9201 3 18.2001 3H21.2651V5.315H22.9651C23.2401 5.315 23.4651 5.535 23.4651 5.815C23.4651 6.08999 23.2401 6.315 22.9651 6.315H21.2651V8.225H24.3401C24.6151 8.225 24.8401 8.44998 24.8401 8.725C24.8401 9 24.6151 9.225 24.3401 9.225H21.2651V11.135H22.9651C23.2401 11.135 23.4651 11.36 23.4651 11.635C23.4651 11.91 23.2401 12.135 22.9651 12.135H21.2651V14.045H24.3401C24.6151 14.045 24.8401 14.27 24.8401 14.545C24.8401 14.82 24.6151 15.045 24.3401 15.045H21.2651V16.955H22.9651C23.2401 16.955 23.4651 17.18 23.4651 17.455C23.4651 17.73 23.2401 17.955 22.9651 17.955H21.2651V19.865H24.3401C24.6151 19.865 24.8401 20.09 24.8401 20.365C24.8401 20.64 24.6151 20.865 24.3401 20.865H21.2651V22.775H22.9651C23.2401 22.775 23.4651 23 23.4651 23.275C23.4651 23.55 23.2401 23.775 22.9651 23.775H21.2651V25.685H24.3401C24.6151 25.685 24.8401 25.91 24.8401 26.185C24.8401 26.465 24.6151 26.685 24.3401 26.685H21.2651V29H16.7751C16.9301 28.72 17.0201 28.4 17.0201 28.06V19.915C17.2501 20.025 17.5101 20.09 17.7801 20.09C18.7501 20.09 19.5351 19.3 19.5351 18.33V12.455C19.5351 10.705 18.1151 9.28501 16.3651 9.28501H10.9101C9.1601 9.28501 7.73508 10.705 7.73508 12.455V18.33C7.73508 19.3 8.52509 20.09 9.49509 20.09C9.76511 20.09 10.0251 20.03 10.2501 19.915V28.06C10.2501 28.4 10.3401 28.72 10.4951 29H5.09009C4.81009 29 4.59009 29.225 4.59009 29.5C4.59009 29.775 4.81009 30 5.09009 30H26.9101C27.1901 30 27.4101 29.775 27.4101 29.5V2.5C27.4101 2.225 27.1901 2 26.9101 2Z" fill="#333333"/>
</svg>
