<svg width="32" height="32" viewBox="0 0 32 32" fill="none" xmlns="http://www.w3.org/2000/svg">
<path d="M25.0878 18.7392C24.9022 18.3552 24.9086 17.888 25.1006 17.504C25.2862 17.1328 25.3822 16.7168 25.3822 16.3008V15.2C25.3822 11.168 21.9646 7.80159 17.4398 7.04639V14.2784C17.4398 15.5776 16.9342 16.7936 16.0254 17.7088V19.616C16.0254 21.5424 14.4638 23.1104 12.5374 23.1104C10.611 23.1104 9.04944 21.5424 9.04944 19.616V17.7088C8.14064 16.7936 7.63504 15.5776 7.63504 14.2784V10.0864C6.28464 11.5328 5.54224 13.3184 5.54224 15.2C5.54224 18.7904 6.95664 21.2736 8.19184 23.0336C9.59344 25.024 7.92944 28.7232 7.91664 28.7616C7.83344 28.9344 7.83984 29.1264 7.91664 29.2992C7.99344 29.4656 8.14064 29.5936 8.32624 29.6448L16.6718 31.9808C16.7294 31.9936 16.787 32 16.8446 32C17.0686 32 17.2862 31.8848 17.4014 31.68C18.5022 29.7216 18.8926 29.2032 19.0078 29.0752C19.3662 28.9856 20.6014 29.0688 21.2734 29.1136C21.9262 29.152 22.483 29.1904 22.8478 29.1712C23.379 29.1392 23.6862 28.8896 23.8462 28.6848C24.3134 28.1088 24.179 27.2576 24.0766 26.5792C24.0062 26.144 24.3774 25.888 24.4094 25.8688C24.563 25.7728 24.6718 25.6192 24.7038 25.4464C24.7422 25.2672 24.6974 25.0816 24.595 24.9408L24.4158 24.704L24.7934 24.4224C24.9406 24.3072 25.0366 24.1408 25.0494 23.9552L25.1198 22.9824L25.555 22.9056C25.8942 22.848 26.1822 22.6368 26.3422 22.3296C26.4958 22.0288 26.5022 21.6704 26.355 21.3632L25.0878 18.7392Z" fill="white"/>
<path d="M12.5372 21.8304C13.7532 21.8304 14.7452 20.8384 14.7452 19.6224V17.1392C15.6028 16.48 16.1596 15.4496 16.1596 14.2848V3.6224C16.1596 1.6256 14.534 0 12.5372 0C10.5404 0 8.91479 1.6256 8.91479 3.6224V14.2784C8.91479 15.4432 9.47159 16.4736 10.3292 17.1328V19.616C10.3228 20.8384 11.3148 21.8304 12.5372 21.8304ZM11.6476 8.9728C11.2956 8.9728 11.0076 8.6848 11.0076 8.3328C11.0076 7.9744 11.2956 7.6928 11.6476 7.6928H11.8972V6.1568H11.2444C10.886 6.1568 10.6044 5.8688 10.6044 5.5168C10.6044 5.1648 10.886 4.8768 11.2444 4.8768H11.8972V4.0704C11.8972 3.6992 12.1852 3.3984 12.5372 3.3984C12.8892 3.3984 13.1772 3.6992 13.1772 4.0704V4.8768H13.83C14.1884 4.8768 14.47 5.1648 14.47 5.5168C14.47 5.8688 14.1884 6.1568 13.83 6.1568H13.1772V7.6928H13.4268C13.7788 7.6928 14.0668 7.9744 14.0668 8.3328C14.0668 8.6848 13.7788 8.9728 13.4268 8.9728H13.1772V10.5024H13.83C14.1884 10.5024 14.47 10.7904 14.47 11.1424C14.47 11.4944 14.1884 11.7824 13.83 11.7824H13.1772V13.3184H13.4268C13.7788 13.3184 14.0668 13.6 14.0668 13.9584C14.0668 14.3104 13.7788 14.5984 13.4268 14.5984H13.1772V16.1728H11.8972V14.5984H11.6476C11.2956 14.5984 11.0076 14.3104 11.0076 13.9584C11.0076 13.6 11.2956 13.3184 11.6476 13.3184H11.8972V11.7824H11.2444C10.886 11.7824 10.6044 11.4944 10.6044 11.1424C10.6044 10.7904 10.886 10.5024 11.2444 10.5024H11.8972V8.9728H11.6476Z" fill="white"/>
</svg>
