<svg width="36" height="32" viewBox="0 0 36 32" fill="none" xmlns="http://www.w3.org/2000/svg">
<path d="M28.2237 18.7392C28.0149 18.3552 28.0221 17.888 28.2381 17.504C28.4469 17.1328 28.5549 16.7168 28.5549 16.3008V15.2C28.5549 11.168 24.7101 7.80159 19.6197 7.04639V14.2784C19.6197 15.5776 19.0509 16.7936 18.0285 17.7088V19.616C18.0285 21.5424 16.2717 23.1104 14.1045 23.1104C11.9373 23.1104 10.1805 21.5424 10.1805 19.616V17.7088C9.15806 16.7936 8.58926 15.5776 8.58926 14.2784V10.0864C7.07006 11.5328 6.23486 13.3184 6.23486 15.2C6.23486 18.7904 7.82606 21.2736 9.21566 23.0336C10.7925 25.024 8.92046 28.7232 8.90606 28.7616C8.81246 28.9344 8.81966 29.1264 8.90606 29.2992C8.99246 29.4656 9.15806 29.5936 9.36686 29.6448L18.7557 31.9808C18.8205 31.9936 18.8853 32 18.9501 32C19.2021 32 19.4469 31.8848 19.5765 31.68C20.8149 29.7216 21.2541 29.2032 21.3837 29.0752C21.7869 28.9856 23.1765 29.0688 23.9325 29.1136C24.6669 29.152 25.2933 29.1904 25.7037 29.1712C26.3013 29.1392 26.6469 28.8896 26.8269 28.6848C27.3525 28.1088 27.2013 27.2576 27.0861 26.5792C27.0069 26.144 27.4245 25.888 27.4605 25.8688C27.6333 25.7728 27.7557 25.6192 27.7917 25.4464C27.8349 25.2672 27.7845 25.0816 27.6693 24.9408L27.4677 24.704L27.8925 24.4224C28.0581 24.3072 28.1661 24.1408 28.1805 23.9552L28.2597 22.9824L28.7493 22.9056C29.1309 22.848 29.4549 22.6368 29.6349 22.3296C29.8077 22.0288 29.8149 21.6704 29.6493 21.3632L28.2237 18.7392Z" fill="#333333"/>
<path d="M14.104 21.8304C15.472 21.8304 16.588 20.8384 16.588 19.6224V17.1392C17.5528 16.48 18.1792 15.4496 18.1792 14.2848V3.6224C18.1792 1.6256 16.3504 0 14.104 0C11.8576 0 10.0288 1.6256 10.0288 3.6224V14.2784C10.0288 15.4432 10.6552 16.4736 11.62 17.1328V19.616C11.6128 20.8384 12.7288 21.8304 14.104 21.8304ZM13.1032 8.9728C12.7072 8.9728 12.3832 8.6848 12.3832 8.3328C12.3832 7.9744 12.7072 7.6928 13.1032 7.6928H13.384V6.1568H12.6496C12.2464 6.1568 11.9296 5.8688 11.9296 5.5168C11.9296 5.1648 12.2464 4.8768 12.6496 4.8768H13.384V4.0704C13.384 3.6992 13.708 3.3984 14.104 3.3984C14.5 3.3984 14.824 3.6992 14.824 4.0704V4.8768H15.5584C15.9616 4.8768 16.2784 5.1648 16.2784 5.5168C16.2784 5.8688 15.9616 6.1568 15.5584 6.1568H14.824V7.6928H15.1048C15.5008 7.6928 15.8248 7.9744 15.8248 8.3328C15.8248 8.6848 15.5008 8.9728 15.1048 8.9728H14.824V10.5024H15.5584C15.9616 10.5024 16.2784 10.7904 16.2784 11.1424C16.2784 11.4944 15.9616 11.7824 15.5584 11.7824H14.824V13.3184H15.1048C15.5008 13.3184 15.8248 13.6 15.8248 13.9584C15.8248 14.3104 15.5008 14.5984 15.1048 14.5984H14.824V16.1728H13.384V14.5984H13.1032C12.7072 14.5984 12.3832 14.3104 12.3832 13.9584C12.3832 13.6 12.7072 13.3184 13.1032 13.3184H13.384V11.7824H12.6496C12.2464 11.7824 11.9296 11.4944 11.9296 11.1424C11.9296 10.7904 12.2464 10.5024 12.6496 10.5024H13.384V8.9728H13.1032Z" fill="#333333"/>
</svg>
