<svg width="32" height="32" viewBox="0 0 32 32" fill="none" xmlns="http://www.w3.org/2000/svg">
<path d="M24.5813 0H7.41885C3.67985 0 0.762725 3.23269 1.14916 6.94794L3.16772 26.3538C3.50154 29.5623 6.20841 32 9.43747 32H15.0626V24.4673C15.0626 23.9501 15.4823 23.5308 16.0001 23.5308C16.5178 23.5308 16.9376 23.9501 16.9376 24.4673V32H22.5627C25.7918 32 28.4987 29.5623 28.8324 26.3538L30.851 6.94794C31.2375 3.23269 28.3203 0 24.5813 0ZM26.6351 10.2615L21.5268 16.1274C21.3487 16.3319 21.0907 16.4493 20.8195 16.4493H11.1807C10.9094 16.4493 10.6515 16.3319 10.4734 16.1274L5.3651 10.2615C5.05816 9.90906 5.05816 9.38456 5.3651 9.03206C8.1976 5.77944 11.9745 3.98819 16.0001 3.98819C20.0257 3.98819 23.8026 5.7795 26.6351 9.03213C26.942 9.38456 26.942 9.90906 26.6351 10.2615Z" fill="#333333"/>
<path d="M22.9808 8.19321L22.1674 9.15597C21.982 9.37815 21.7153 9.49284 21.4468 9.49284C21.2351 9.49284 21.0223 9.42165 20.847 9.27565C20.4493 8.94446 20.3956 8.3539 20.7272 7.95659L21.3594 7.18428C19.9735 6.46309 18.4815 6.02596 16.9376 5.8999V7.05334C16.9376 7.57059 16.5179 7.9899 16.0001 7.9899C15.4824 7.9899 15.0626 7.57059 15.0626 7.05334V5.8999C13.5188 6.02596 12.0268 6.46309 10.6408 7.18421L11.273 7.95653C11.6046 8.35384 11.5509 8.9444 11.1533 9.27559C10.978 9.42153 10.7651 9.49278 10.5534 9.49278C10.2848 9.49278 10.0183 9.37809 9.83283 9.1559L9.01639 8.1954C8.4257 8.62859 7.86177 9.11878 7.33008 9.66409L11.6077 14.5762H14.1043L15.5766 11.3903C15.7433 11.0295 16.2568 11.0295 16.4235 11.3903L17.8958 14.5762H20.3924L24.67 9.66409C24.1376 9.1179 23.5726 8.62696 22.9808 8.19321Z" fill="#333333"/>
</svg>
