<svg width="32" height="32" viewBox="0 0 32 32" fill="none" xmlns="http://www.w3.org/2000/svg">
<path d="M24.5812 0H7.41873C3.67973 0 0.762603 3.23269 1.14904 6.94794L3.1676 26.3538C3.50142 29.5623 6.20829 32 9.43735 32H15.0625V24.4673C15.0625 23.9501 15.4822 23.5308 16 23.5308C16.5177 23.5308 16.9375 23.9501 16.9375 24.4673V32H22.5626C25.7917 32 28.4985 29.5623 28.8323 26.3538L30.8509 6.94794C31.2374 3.23269 28.3202 0 24.5812 0ZM26.635 10.2615L21.5267 16.1274C21.3485 16.3319 21.0906 16.4493 20.8194 16.4493H11.1806C10.9093 16.4493 10.6514 16.3319 10.4733 16.1274L5.36498 10.2615C5.05804 9.90906 5.05804 9.38456 5.36498 9.03206C8.19748 5.77944 11.9744 3.98819 16 3.98819C20.0255 3.98819 23.8025 5.7795 26.635 9.03213C26.9419 9.38456 26.9419 9.90906 26.635 10.2615Z" fill="white"/>
<path d="M22.9806 8.19321L22.1673 9.15596C21.9818 9.37815 21.7152 9.49284 21.4467 9.49284C21.235 9.49284 21.0222 9.42165 20.8468 9.27565C20.4492 8.94446 20.3955 8.3539 20.7271 7.95659L21.3593 7.18428C19.9734 6.46309 18.4813 6.02596 16.9375 5.8999V7.05334C16.9375 7.57059 16.5178 7.9899 16 7.9899C15.4823 7.9899 15.0625 7.57059 15.0625 7.05334V5.8999C13.5187 6.02596 12.0266 6.46309 10.6407 7.18421L11.2729 7.95653C11.6045 8.35384 11.5508 8.9444 11.1531 9.27559C10.9778 9.42153 10.765 9.49278 10.5533 9.49278C10.2847 9.49278 10.0181 9.37809 9.83271 9.1559L9.01627 8.1954C8.42558 8.62859 7.86164 9.11878 7.32996 9.66409L11.6076 14.5762H14.1041L15.5765 11.3903C15.7432 11.0295 16.2566 11.0295 16.4234 11.3903L17.8957 14.5762H20.3923L24.6699 9.66409C24.1375 9.1179 23.5725 8.62696 22.9806 8.19321Z" fill="white"/>
</svg>
